<svg height="33.371796" viewBox="232 508.3718 132 33.371795" width="132" xmlns="http://www.w3.org/2000/svg"><g fill="#e3fdc4"><g transform="translate(0 -3.5)"><path d="m232.92797 522.9407c.5125 0 .92797.41546.92797.92796v2.37804c0 .5125-.41547.928-.92797.928-.5125 0-.92797-.4155-.92797-.928v-2.37804c0-.5125.41547-.92796.92797-.92796z"/><path d="m236.73185 518.2833c.51251 0 .92797.41545.92797.92796v11.69284c0 .51253-.41546.928-.92797.928-.5125 0-.92797-.41547-.92797-.928v-11.69284c0-.51251.41547-.92796.92797-.92796z"/><path d="m240.53574 513.6259c.5125 0 .92796.41545.92796.92795v21.00768c0 .51251-.41546.92797-.92796.92797-.51251 0-.92797-.41546-.92797-.92797v-21.00768c0-.5125.41546-.92795.92797-.92795z"/><path d="m251.9474 511.8718c.5125 0 .92796.41546.92796.92796v24.51584c0 .5125-.41546.928-.92796.928-.51252 0-.92798-.4155-.92798-.928v-24.51584c0-.5125.41546-.92796.92798-.92796z"/><path d="m244.33962 520.7632c.5125 0 .92798.4155.92798.928v6.733c0 .5125-.41548.928-.92798.928-.5125 0-.92797-.4155-.92797-.928v-6.733c0-.5125.41547-.928.92797-.928z"/><path d="m248.1435 518.2833c.5125 0 .92797.41545.92797.92796v11.69284c0 .51253-.41547.928-.92797.928-.5125 0-.92797-.41547-.92797-.928v-11.69284c0-.51251.41547-.92796.92797-.92796z"/><path d="m255.75127 515.8034c.51251 0 .92797.41544.92797.92794v16.6527c0 .51251-.41546.92796-.92797.92796-.5125 0-.92797-.41545-.92797-.92796v-16.6527c0-.5125.41547-.92794.92797-.92794z"/><path d="m263.35904 515.259c.5125 0 .92796.41546.92796.92797v17.74143c0 .5125-.41546.928-.92796.928-.51251 0-.92797-.4155-.92797-.928v-17.74143c0-.51251.41546-.92797.92797-.92797z"/><path d="m259.55515 520.5515c.51251 0 .92797.41547.92797.928v7.1564c0 .5125-.41546.928-.92797.928-.5125 0-.92795-.4155-.92795-.928v-7.1564c0-.51253.41545-.928.92795-.928z"/><path d="m267.16292 522.9173c.51251 0 .92798.41547.92798.928v2.4248c0 .5125-.41547.928-.92798.928-.5125 0-.92797-.4155-.92797-.928v-2.4248c0-.51253.41547-.928.92797-.928z"/></g><path d="m2.31 21v-15.4h2.2v13.486h8.338v1.914zm15.173158 0v-5.896l.506 1.364-6.622-10.868h2.354l5.566 9.174h-1.276l5.588-9.174h2.178l-6.6 10.868.484-1.364v5.896zm10.243193 0v-15.4h6.006q2.024 0 3.454.638 1.43.638 2.2 1.848.77 1.21.77 2.882 0 1.672-.77 2.882-.77 1.188-2.2 1.826-1.43.638-3.454.638h-4.796l.99-1.012v5.698zm10.296 0-3.916-5.588h2.354l3.96 5.588zm-8.096-5.478-.99-1.078h4.73q2.112 0 3.19-.902 1.1-.924 1.1-2.574 0-1.65-1.1-2.552-1.078-.902-3.19-.902h-4.73l.99-1.1zm13.793985 5.478v-15.4h2.2v15.4zm13.771988.176q-1.76 0-3.278-.594-1.496-.594-2.596-1.65-1.1-1.078-1.716-2.508-.616-1.43-.616-3.124 0-1.694.616-3.124.616-1.43 1.716-2.486 1.1-1.078 2.596-1.672 1.496-.594 3.278-.594 1.76 0 3.234.594 1.496.572 2.596 1.65 1.122 1.056 1.716 2.486.616 1.43.616 3.146 0 1.716-.616 3.146-.594 1.43-1.716 2.508-1.1 1.056-2.596 1.65-1.474.572-3.234.572zm0-1.958q1.276 0 2.354-.44 1.1-.44 1.892-1.232.814-.814 1.254-1.892.462-1.078.462-2.354 0-1.276-.462-2.354-.44-1.078-1.254-1.87-.792-.814-1.892-1.254-1.078-.44-2.354-.44-1.298 0-2.398.44-1.078.44-1.892 1.254-.814.792-1.276 1.87-.44 1.078-.44 2.354 0 1.276.44 2.354.462 1.078 1.276 1.892.814.792 1.892 1.232 1.1.44 2.398.44zm11.528003 1.782v-15.4h1.804l10.186 12.65h-.946v-12.65h2.2v15.4h-1.804l-10.186-12.65h.946v12.65z" transform="translate(278.42633 508.0577)"/></g></svg>